# xmcd
#
# Track frame offsets: 
#        182
#        11510
#        20097
#        27505
#        44850
#        56447
#        65880
#        72642
#        78837
#        96030
#        102315
#        111310
#        118702
#        126037
#        152897
#        159147
#        166480
#        173160
#        183157
#        187832
#        197160
#        209540
#        213827
#        220495
#        233285
#        246212
#        252540
#        265632
#        270255
#        278940
#        284995
#        293695
#        306375
#        311920
#
# Disc length: 4282 seconds
#
# Revision: 3
# Processed by: cddbd v1.5.1PL0 Copyright (c) Steve Scherf et al.
# Submitted via: ExactAudioCopy v0.95b3
#
DISCID=0510b822
DTITLE=Stefan Grossman - Black Melodies On A Clear Afternoon
DYEAR=1991
DGENRE=Blues
TTITLE0=Struttin' Rag
TTITLE1=Blake's Breakdown
TTITLE2=Blues Ain't Dry
TTITLE3=St. Louis Tickle
TTITLE4=Working On The New Railroad
TTITLE5=Atlanta Rag
TTITLE6=Nobody's Business
TTITLE7=Haag City Dance
TTITLE8=Mabel's Dream
TTITLE9=Spoonful
TTITLE10=East Colorado Blues
TTITLE11=Little Boy, Little Boy, Who Made Your Britches
TTITLE12=Smokey Mokes
TTITLE13=The Entertainer
TTITLE14=Glory Of Love
TTITLE15=Slippin' 'Til My Girl Comes In Partner
TTITLE16=Harlem Rag
TTITLE17=John Henry
TTITLE18=It Won't Be Long
TTITLE19=Sister Kate's Syncopated Dance
TTITLE20=Silver Swan
TTITLE21=Charley James
TTITLE22=Buck Dancer's Choice
TTITLE23=Down South Blues
TTITLE24=See That Girl Sitting On The Fence
TTITLE25=See See Rider
TTITLE26=Powder Rag
TTITLE27=Sugarbabe
TTITLE28=Franklin Blues
TTITLE29=A Salty Dog Rag
TTITLE30=King Porter Stomp
TTITLE31=Bill Bailey
TTITLE32=Delta Crossroads
TTITLE33=Faretheewell Titanic
EXTD=YEAR: 1991
EXTT0=
EXTT1=
EXTT2=
EXTT3=
EXTT4=
EXTT5=
EXTT6=
EXTT7=
EXTT8=
EXTT9=
EXTT10=
EXTT11=
EXTT12=
EXTT13=
EXTT14=
EXTT15=
EXTT16=
EXTT17=
EXTT18=
EXTT19=
EXTT20=
EXTT21=
EXTT22=
EXTT23=
EXTT24=
EXTT25=
EXTT26=
EXTT27=
EXTT28=
EXTT29=
EXTT30=
EXTT31=
EXTT32=
EXTT33=
PLAYORDER=
